<svg version="1.2" baseProfile="tiny-ps" xmlns="http://www.w3.org/2000/svg" viewBox="0 0 1260 576" width="1260" height="576">
	<style>
		tspan { white-space:pre }
		.shp0 { fill: #ff3946 } 
		.shp1 { fill: #314584 } 
	</style>
	<g id="Layer 1">
		<g id="&lt;Group&gt;">
			<path id="&lt;Path&gt;" class="shp0" d="M911.34 567L377.33 567L377.33 459L911.34 459L911.34 567Z" />
			<g id="&lt;Group&gt;">
				<g id="&lt;Group&gt;">
					<path id="&lt;Compound Path&gt;" fill-rule="evenodd" class="shp1" d="M263.43 94.83C292.04 123.78 306.35 164.84 306.35 218C306.35 271.2 292.04 312.26 263.43 341.23C234.81 370.16 194.41 384.64 142.24 384.64L13.5 384.64L13.5 51.41L142.24 51.41C194.41 51.41 234.81 65.87 263.43 94.83ZM210.16 300.57C226.14 281.57 234.14 254.04 234.14 218C234.14 182 226.14 154.49 210.16 135.47C194.17 116.45 170.35 106.94 138.73 106.94L83.18 106.94L83.18 329.1L138.73 329.1C170.35 329.1 194.17 319.59 210.16 300.57Z" />
					<path id="&lt;Compound Path&gt;" fill-rule="evenodd" class="shp1" d="M585.81 161.97C608.52 185.2 619.88 217.34 619.88 258.4C619.88 299.48 608.52 331.63 585.81 354.87C563.08 378.07 531.35 389.67 490.64 389.67C449.89 389.67 418.18 378.07 395.45 354.87C372.73 331.63 361.37 299.48 361.37 258.4C361.37 217.34 372.73 185.2 395.45 161.97C418.18 138.75 449.89 127.13 490.64 127.13C531.35 127.13 563.08 138.75 585.81 161.97ZM445.96 198.58C435.67 211.89 430.56 231.82 430.56 258.4C430.56 285.01 435.67 304.95 445.96 318.23C456.22 331.54 471.09 338.19 490.64 338.19C510.15 338.19 525.04 331.54 535.32 318.23C545.59 304.95 550.72 285.01 550.72 258.4C550.72 231.82 545.59 211.89 535.32 198.58C525.04 185.29 510.15 178.63 490.64 178.63C471.09 178.63 456.22 185.29 445.96 198.58Z" />
					<path id="&lt;Compound Path&gt;" fill-rule="evenodd" class="shp1" d="M895.8 161.97C918.53 185.2 929.88 217.34 929.88 258.4C929.88 299.48 918.53 331.63 895.8 354.87C873.07 378.07 841.36 389.67 800.63 389.67C759.9 389.67 728.17 378.07 705.45 354.87C682.73 331.63 671.38 299.48 671.38 258.4C671.38 217.34 682.73 185.2 705.45 161.97C728.17 138.75 759.9 127.13 800.63 127.13C841.36 127.13 873.07 138.75 895.8 161.97ZM755.95 198.58C745.66 211.89 740.55 231.82 740.55 258.4C740.55 285.01 745.66 304.95 755.95 318.23C766.21 331.54 781.1 338.19 800.63 338.19C820.14 338.19 835.03 331.54 845.31 318.23C855.58 304.95 860.71 285.01 860.71 258.4C860.71 231.82 855.58 211.89 845.31 198.58C835.03 185.29 820.14 178.63 800.63 178.63C781.1 178.63 766.21 185.29 755.95 198.58Z" />
					<path id="&lt;Compound Path&gt;" fill-rule="evenodd" class="shp1" d="M1222.21 161.97C1241.4 185.2 1251 217.51 1251 258.93C1251 299.99 1241.4 332.05 1222.21 355.09C1203.03 378.16 1176.61 389.67 1142.95 389.67C1123.08 389.67 1105.84 384.71 1091.2 374.8C1076.55 364.87 1065.52 351.49 1058.13 334.65L1055.6 384.64L994.5 384.64L994.5 21.61L1063.69 21.61L1063.69 173.59C1071.42 159.12 1082.02 147.76 1095.49 139.51C1108.95 131.26 1124.77 127.13 1142.95 127.13C1176.61 127.13 1203.03 138.75 1222.21 161.97ZM1166.17 316.48C1176.61 303.01 1181.83 283.66 1181.83 258.4C1181.83 233.16 1176.61 213.82 1166.17 200.36C1155.73 186.89 1141.1 180.14 1122.26 180.14C1105.42 180.14 1091.78 186.05 1081.35 197.82C1070.91 209.6 1065.02 226.09 1063.69 247.29L1063.69 269.51C1065.02 291.06 1070.91 307.63 1081.35 319.25C1091.78 330.86 1105.42 336.67 1122.26 336.67C1141.1 336.67 1155.73 329.94 1166.17 316.48Z" />
				</g>
			</g>
		</g>
	</g>
</svg>