<svg version="1.2" baseProfile="tiny-ps" xmlns="http://www.w3.org/2000/svg" viewBox="0 0 38 31" width="38" height="31">
	<title>Twitter</title>
	<style>
		tspan { white-space:pre }
		.shp0 { fill: #ffffff } 
	</style>
	<path id="Twitter" class="shp0" d="M37.85 3.57C36.49 4.17 35.03 4.58 33.49 4.77C35.05 3.83 36.26 2.34 36.83 0.57C35.36 1.44 33.73 2.07 32.01 2.41C30.63 0.94 28.65 0.01 26.47 0.01C22.28 0.01 18.88 3.41 18.88 7.6C18.88 8.2 18.95 8.77 19.08 9.33C12.78 9.02 7.19 5.99 3.44 1.4C2.79 2.52 2.42 3.83 2.42 5.22C2.42 7.85 3.76 10.17 5.79 11.53C4.55 11.49 3.38 11.15 2.35 10.58C2.35 10.61 2.35 10.65 2.35 10.68C2.35 14.35 4.97 17.42 8.44 18.12C7.8 18.29 7.13 18.38 6.44 18.38C5.95 18.38 5.48 18.34 5.02 18.24C5.98 21.26 8.78 23.45 12.1 23.52C9.5 25.55 6.23 26.76 2.68 26.76C2.07 26.76 1.46 26.73 0.87 26.66C4.23 28.81 8.22 30.06 12.5 30.06C26.45 30.06 34.09 18.5 34.09 8.48C34.09 8.15 34.08 7.82 34.06 7.5C35.54 6.43 36.83 5.09 37.85 3.57Z" />
</svg>